<?xml version="1.0" encoding="UTF-8"?>
<svg width="62px" height="62px" viewBox="0 0 80 80" version="1.1" xmlns="http://www.w3.org/2000/svg" xmlns:xlink="http://www.w3.org/1999/xlink">
    <!-- Generator: Sketch 52.6 (67491) - http://www.bohemiancoding.com/sketch -->
    <title>Dots</title>
    <desc>Created with Sketch.</desc>
    <g id="Page-1" stroke="none" stroke-width="1" fill="none" fill-rule="evenodd">
        <g id="Desktop" transform="translate(-506.000000, -87.000000)" fill="#FFFFFF">
            <g id="Group" transform="translate(506.000000, 87.000000)">
                <g id="Dots">
                    <g id="Group">
                        <rect id="Rectangle" x="0" y="0" width="1.53846154" height="1.53846154"></rect>
                        <rect id="Rectangle-Copy-28" x="0" y="40" width="1.53846154" height="1.53846154"></rect>
                        <rect id="Rectangle-Copy-14" x="0" y="20" width="1.53846154" height="1.53846154"></rect>
                        <rect id="Rectangle-Copy-29" x="0" y="60" width="1.53846154" height="1.53846154"></rect>
                        <rect id="Rectangle-Copy-2" x="40" y="0" width="1.53846154" height="1.53846154"></rect>
                        <rect id="Rectangle-Copy-30" x="40" y="40" width="1.53846154" height="1.53846154"></rect>
                        <rect id="Rectangle-Copy-15" x="40" y="20" width="1.53846154" height="1.53846154"></rect>
                        <rect id="Rectangle-Copy-31" x="40" y="60" width="1.53846154" height="1.53846154"></rect>
                        <rect id="Rectangle-Copy" x="20" y="0" width="1.53846154" height="1.53846154"></rect>
                        <rect id="Rectangle-Copy-32" x="20" y="40" width="1.53846154" height="1.53846154"></rect>
                        <rect id="Rectangle-Copy-16" x="20" y="20" width="1.53846154" height="1.53846154"></rect>
                        <rect id="Rectangle-Copy-33" x="20" y="60" width="1.53846154" height="1.53846154"></rect>
                        <rect id="Rectangle-Copy-3" x="60" y="0" width="1.53846154" height="1.53846154"></rect>
                        <rect id="Rectangle-Copy-34" x="60" y="40" width="1.53846154" height="1.53846154"></rect>
                        <rect id="Rectangle-Copy-17" x="60" y="20" width="1.53846154" height="1.53846154"></rect>
                        <rect id="Rectangle-Copy-35" x="60" y="60" width="1.53846154" height="1.53846154"></rect>
                    </g>
                </g>
            </g>
        </g>
    </g>
</svg>